<svg height="512pt" viewBox="0 0 512 512" width="512pt" xmlns="http://www.w3.org/2000/svg"><path d="m414.808594 179.3125c-21.074219-7.660156-45.847656 9.03125-56.394532 38.007812-10.550781 28.980469-2.304687 57.691407 18.777344 65.367188 23.527344 8.550781 47.164063-12.648438 56.394532-38.007812 10.550781-28.980469 2.304687-57.691407-18.777344-65.367188zm-.015625 58.527344c-7.054688 19.378906-21.875 29.285156-30.761719 26.054687-8.890625-3.238281-13.878906-20.351562-6.824219-39.734375 6.519531-17.90625 21.046875-29.585937 30.761719-26.054687 8.890625 3.238281 13.878906 20.351562 6.824219 39.734375zm0 0"/><path d="m191.453125 96.832031c-25.027344 4.417969-34.417969 35.179688-29.84375 61.113281 4.886719 27.742188 25.0625 51.425782 48.9375 47.222657 25.039063-4.417969 34.414063-35.199219 29.839844-61.117188-5.347657-30.363281-26.84375-51.105469-48.933594-47.21875zm15.625 88.640625c-9.324219 1.644532-22.191406-10.6875-25.769531-31-2.527344-14.308594 1.351562-38.089844 15.3125-38.089844 9.117187 0 20.707031 12.042969 24.070312 31.140626v.003906c2.484375 14.074218-1.027344 35.722656-13.613281 37.945312zm0 0"/><path d="m97.1875 179.3125c-21.078125 7.675781-29.324219 36.386719-18.773438 65.367188 9.1875 25.234374 32.792969 46.585937 56.398438 38.007812 21.078125-7.675781 29.324219-36.390625 18.773438-65.367188-10.546876-28.972656-35.316407-45.667968-56.398438-38.007812zm30.785156 84.578125c-8.886718 3.242187-23.710937-6.671875-30.765625-26.050781-7.054687-19.382813-2.066406-36.496094 6.820313-39.730469 9.757812-3.554687 24.238281 8.117187 30.765625 26.050781 7.054687 19.382813 2.066406 36.496094-6.820313 39.730469zm0 0"/><path d="m266 10c0 5.523438-4.476562 10-10 10s-10-4.476562-10-10 4.476562-10 10-10 10 4.476562 10 10zm0 0"/><path d="m302.625 4.230469c-5.433594-1.003907-10.644531 2.59375-11.640625 8.027343-1 5.429688 2.59375 10.644532 8.027344 11.640626 45.261719 8.316406 85.496093 29.257812 117.359375 58.796874l-64.863282 64.867188c.902344-23.039062-9.535156-46.949219-30.964843-50.730469-22.082031-3.886719-43.582031 16.855469-48.929688 47.21875-2.429687 13.765625-1.074219 27.480469 3.816407 38.621094 4.425781 10.097656 11.589843 17.414063 20.148437 20.820313l-16.714844 16.710937c-7.53125-2.78125-15.191406-4.203125-22.863281-4.203125-55.441406 0-98.375 73-99.949219 127.019531l-73.179687 73.175781c-38.996094-42.109374-62.871094-98.414062-62.871094-160.195312 0-113.945312 81.164062-211.558594 192.988281-232.101562 5.433594-.996094 9.027344-6.210938 8.027344-11.640626-.996094-5.433593-6.210937-9.03125-11.640625-8.03125-121.320312 22.289063-209.375 128.171876-209.375 251.773438 0 141.582031 114.382812 256 256 256 141.582031 0 256-114.382812 256-256 0-123.597656-88.054688-229.484375-209.375-251.769531zm-11.316406 143.292969c3.367187-19.101563 14.953125-31.140626 24.070312-31.140626 13.910156 0 17.894532 23.460938 15.3125 38.089844v.003906c-3.578125 20.308594-16.457031 32.617188-25.765625 30.996094-6.0625-1.070312-9.609375-7.25-11.183593-10.835937-3.269532-7.457031-4.160157-17.335938-2.433594-27.113281zm-8.363282 96.886718c31.558594 19.574219 53.054688 67.582032 53.054688 101.589844 0 22.226562-10.554688 41.597656-32.453125 39.175781-10.953125-1.207031-20.769531-7.980469-25.613281-17.667969l-12.988282-25.980468c-1.695312-3.386719-5.15625-5.527344-8.945312-5.527344s-7.25 2.140625-8.945312 5.527344l-12.988282 25.980468c-4.84375 9.6875-14.660156 16.457032-25.609375 17.667969-16.183593 1.789063-30.589843-9.289062-32.277343-34zm-26.945312-8.410156c2.175781 0 4.359375.1875 6.546875.519531l-82.859375 82.859375c10.21875-39.6875 40.535156-83.378906 76.3125-83.378906zm0 256c-61.167969 0-116.972656-23.394531-158.945312-61.703125l61.921874-61.921875c7.238282 24.820312 27.234376 39.371094 51.671876 36.679688 34.148437-3.769532 43.734374-34.667969 45.351562-36.695313 1.570312 1.96875 11.234375 32.929687 45.351562 36.695313 29.074219 3.199218 54.648438-18.347657 54.648438-59.054688 0-38.824219-23.105469-91.257812-58.632812-116.015625l133.082031-133.082031c38.480469 42.257812 61.550781 98.355468 61.550781 159.097656 0 130.132812-105.867188 236-236 236zm0 0"/></svg>